<?xml version="1.0" encoding="UTF-8"?>
<svg width="512pt" height="512pt" version="1.1" viewBox="0 0 682.67 682.67" xml:space="preserve" xmlns="http://www.w3.org/2000/svg"><defs><linearGradient id="linearGradient2" x1="79.399" x2="79.399" y1="176.02" y2="120.3" gradientTransform="matrix(2.3332,0,0,2.3332,-111.25,-195.69)" gradientUnits="userSpaceOnUse"><stop stop-color="#d00" offset="0"/><stop stop-color="#f63" offset=".32649"/><stop stop-color="#fc9" offset=".71632"/><stop stop-color="#ff0" offset="1"/></linearGradient></defs><g transform="matrix(3.4895 0 0 3.4895 -98.192 -304.23)"><g transform="matrix(1.1519,0,0,1.1519,4.4555,12.215)"><path d="m170 150a65 65 0 01-64.743 64.999 65 65 0 01-65.255-64.486 65 65 0 0164.227-65.509 65 65 0 0165.763 63.968" fill="url(#linearGradient2)"/><path d="m30 130h26.25l3.75-10h45l20 20 4.8276-5h25.172l5 5h5l15 20h-20l-10 10h-71.128l-3.8724-10h-30z" fill="none" stroke="#336" stroke-linecap="square" stroke-width="5" style="paint-order:normal"/><path d="m30 130h26.25l3.75-10h45l15 15 5.0862 4.9108 4.7414-4.9108h25.172l5 5h5l15 20h-20l-10 10h-71.128l-3.8724-10h-30z" fill="#555"/><path d="m30 130h26.25l3.75-10h45l5 5 15.086 14.911 4.9138-4.9108h25l5 5h5l1.9297 6.5285-4.2904 6.9963-2.6393 6.4752 11.106-11.859-11.106 11.859-10 10h-11.166l-15.198-21.859h-34.614l-10.149 11.859h-7.4876l-11.385-32.431-11.853 32.431h-3.1472z" fill="#888"/><path d="m95.996 148.14h6.2852l-19.119 21.859h-4.2904z" fill="#444" stroke-linecap="square" stroke-width="5"/><path d="m30 130h26.25l3.75-10h45l20 20h40l15 20h-16.197l8.697-10-1.3943-1.8591-11.106 11.859-10 10h-7.5632l-17.437-25h-25l-21.128 25-18.872-50-15 40z" fill="#fff"/></g></g></svg>
